<svg xmlns="http://www.w3.org/2000/svg" viewBox="0 0 100 100">
  <defs>
    <mask id="hole">
      <rect width="100" height="100" fill="white" />
      <circle cx="50" cy="50" r="16" fill="black" />
    </mask>
  </defs>
  
  <g mask="url(#hole)">
    <!-- Base -->
    <circle cx="50" cy="50" r="42" fill="#f7c36f" />
    <!-- Frosting -->
    <path d="M 50 10 C 75 10, 92 25, 92 45 C 92 65, 80 68, 68 62 C 60 58, 55 68, 48 68 C 40 68, 35 58, 28 62 C 16 68, 8 65, 8 45 C 8 25, 25 10, 50 10 Z" fill="#e85c87" />
    
    <!-- Sprinkles -->
    <rect x="35" y="20" width="5" height="12" rx="2.5" fill="#ffffff" transform="rotate(45 37 26)" />
    <rect x="65" y="18" width="5" height="12" rx="2.5" fill="#7e3e25" transform="rotate(-30 67 24)" />
    <rect x="78" y="42" width="5" height="12" rx="2.5" fill="#ffffff" transform="rotate(15 80 48)" />
    <rect x="22" y="38" width="5" height="12" rx="2.5" fill="#7e3e25" transform="rotate(-45 24 44)" />
    <rect x="42" y="55" width="5" height="12" rx="2.5" fill="#ffffff" transform="rotate(70 44 61)" />
  </g>
</svg>
